# Blender 4.3.2
# www.blender.org
mtllib bbcage-2.mtl
o cube.001
v 0.125000 0.000000 0.875000
v 0.125000 0.250000 0.875000
v 0.125000 0.000000 0.125000
v 0.125000 0.250000 0.125000
v 0.875000 0.000000 0.875000
v 0.875000 0.250000 0.875000
v 0.875000 0.000000 0.125000
v 0.875000 0.250000 0.125000
v 0.062500 0.312500 0.937500
v 0.062500 0.875000 0.937500
v 0.937500 0.312500 0.937500
v 0.937500 0.875000 0.937500
v 0.062500 0.250000 0.875000
v 0.937500 0.250000 0.875000
v 0.062500 0.937500 1.000000
v 0.937500 0.937500 1.000000
v 0.937500 0.312500 0.937500
v 0.937500 0.875000 0.937500
v 0.937500 0.312500 0.062500
v 0.937500 0.875000 0.062500
v 0.875000 0.250000 0.937500
v 0.875000 0.250000 0.062500
v 1.000000 0.937500 0.937500
v 1.000000 0.937500 0.062500
v 0.937500 0.312500 0.062500
v 0.937500 0.875000 0.062500
v 0.062500 0.312500 0.062500
v 0.062500 0.875000 0.062500
v 0.937500 0.250000 0.125000
v 0.062500 0.250000 0.125000
v 0.937500 0.937500 -0.000000
v 0.062500 0.937500 -0.000000
v 0.062500 0.312500 0.062500
v 0.062500 0.875000 0.062500
v 0.062500 0.312500 0.937500
v 0.062500 0.875000 0.937500
v 0.125000 0.250000 0.062500
v 0.125000 0.250000 0.937500
v 0.000000 0.937500 0.062500
v 0.000000 0.937500 0.937500
v 0.875000 0.000000 0.875000
v 1.000000 0.000000 1.000000
v 0.875000 0.312500 0.875000
v 1.000000 0.312500 1.000000
v 0.875000 0.000000 0.125000
v 1.000000 0.000000 0.000000
v 0.875000 0.312500 0.125000
v 1.000000 0.312500 -0.000000
v 0.125000 0.000000 0.125000
v 0.000000 0.000000 0.000000
v 0.125000 0.312500 0.125000
v 0.000000 0.312500 -0.000000
v 0.125000 0.000000 0.875000
v 0.000000 0.000000 1.000000
v 0.125000 0.312500 0.875000
v 0.000000 0.312500 1.000000
v 0.062500 0.312500 0.937500
v 0.062500 0.875000 0.937500
v 0.937500 0.312500 0.937500
v 0.937500 0.875000 0.937500
v 0.062500 0.250000 0.875000
v 0.937500 0.250000 0.875000
v 0.062500 0.937500 1.000000
v 0.937500 0.937500 1.000000
v 0.937500 0.312500 0.937500
v 0.937500 0.875000 0.937500
v 0.937500 0.312500 0.062500
v 0.937500 0.875000 0.062500
v 0.875000 0.250000 0.937500
v 0.875000 0.250000 0.062500
v 1.000000 0.937500 0.937500
v 1.000000 0.937500 0.062500
v 0.937500 0.312500 0.062500
v 0.937500 0.875000 0.062500
v 0.062500 0.312500 0.062500
v 0.062500 0.875000 0.062500
v 0.937500 0.250000 0.125000
v 0.062500 0.250000 0.125000
v 0.937500 0.937500 -0.000000
v 0.062500 0.937500 -0.000000
v 0.062500 0.312500 0.062500
v 0.062500 0.875000 0.062500
v 0.062500 0.312500 0.937500
v 0.062500 0.875000 0.937500
v 0.125000 0.250000 0.062500
v 0.125000 0.250000 0.937500
v 0.000000 0.937500 0.062500
v 0.000000 0.937500 0.937500
v 0.875000 0.000000 0.875000
v 1.000000 0.000000 1.000000
v 0.875000 0.312500 0.875000
v 1.000000 0.312500 1.000000
v 0.875000 0.000000 0.125000
v 1.000000 0.000000 0.000000
v 0.875000 0.312500 0.125000
v 1.000000 0.312500 -0.000000
v 0.125000 0.000000 0.125000
v 0.000000 0.000000 0.000000
v 0.125000 0.312500 0.125000
v 0.000000 0.312500 -0.000000
v 0.125000 0.000000 0.875000
v 0.000000 0.000000 1.000000
v 0.125000 0.312500 0.875000
v 0.000000 0.312500 1.000000
v 0.250037 0.000000 0.125000
v 0.250037 0.250000 0.125000
v 0.250037 0.000000 0.875000
v 0.250037 0.250000 0.875000
v 0.125000 0.000000 0.749997
v 0.125000 0.250000 0.749997
v 0.875000 0.000000 0.749997
v 0.875000 0.250000 0.749997
v 0.250037 0.250000 0.749997
v 0.250037 0.000000 0.749997
v 0.187518 0.000000 0.749997
v 0.187518 0.250000 0.749997
v 0.250037 0.250000 0.812499
v 0.250037 0.000000 0.812499
v 0.750007 0.000000 0.125000
v 0.750007 0.250000 0.125000
v 0.750007 0.000000 0.875000
v 0.750007 0.250000 0.875000
v 0.750007 0.250000 0.749997
v 0.750007 0.000000 0.749997
v 0.750007 0.250000 0.812499
v 0.750007 0.000000 0.812499
v 0.812504 0.250000 0.749997
v 0.812504 0.000000 0.749997
v 0.125000 0.000000 0.249999
v 0.125000 0.250000 0.249999
v 0.875000 0.000000 0.249999
v 0.875000 0.250000 0.249999
v 0.250037 0.250000 0.249999
v 0.250037 0.000000 0.249999
v 0.187518 0.000000 0.249999
v 0.187518 0.250000 0.249999
v 0.750007 0.000000 0.249999
v 0.750007 0.250000 0.249999
v 0.812504 0.250000 0.249999
v 0.812504 0.000000 0.249999
v 0.250037 0.250000 0.187500
v 0.250037 0.000000 0.187500
v 0.750007 0.000000 0.187500
v 0.750007 0.250000 0.187500
vn -0.0000 -1.0000 -0.0000
vn -0.0000 -0.0000 1.0000
vn -0.0000 -0.7071 0.7071
vn 1.0000 -0.0000 -0.0000
vn 0.7071 -0.7071 -0.0000
vn -0.0000 -0.0000 -1.0000
vn -0.0000 -0.7071 -0.7071
vn -1.0000 -0.0000 -0.0000
vn -0.7071 -0.7071 -0.0000
vn -0.7071 -0.0000 0.7071
vn 0.7071 -0.0000 0.7071
vn 0.7071 -0.0000 -0.7071
vn -0.7071 -0.0000 -0.7071
vn -0.0000 0.7071 -0.7071
vn -0.7071 0.7071 -0.0000
vn -0.0000 0.7071 0.7071
vn 0.7071 0.7071 -0.0000
vn -0.0000 1.0000 -0.0000
vt 0.906252 0.312499
vt 0.937500 0.312499
vt 0.937500 0.375000
vt 0.875004 0.375000
vt 0.875004 0.343749
vt 0.875004 0.312499
vt 0.468750 0.531250
vt 0.468750 0.812500
vt 0.031250 0.812500
vt 0.031250 0.531250
vt 0.031250 0.500000
vt 0.468750 0.500000
vt 0.468750 0.843750
vt 0.031250 0.843750
vt 0.906250 0.343750
vt 1.000000 0.343750
vt 1.000000 0.500000
vt 0.906250 0.500000
vt 0.624996 0.906249
vt 0.874982 0.906249
vt 0.874982 0.937500
vt 0.624996 0.937500
vt 0.906254 0.374999
vt 0.906246 0.499999
vt 0.874996 0.499999
vt 0.875004 0.374999
vt 0.562500 0.062500
vt 0.593759 0.062500
vt 0.593759 0.312499
vt 0.562500 0.312499
vt 0.625018 0.375000
vt 0.875004 0.375000
vt 0.874996 0.500000
vt 0.624982 0.500000
vt 0.625018 0.343749
vt 0.624982 0.499999
vt 0.874996 0.499999
vt 0.906241 0.625000
vt 0.937500 0.625000
vt 0.937500 0.874999
vt 0.906241 0.874999
vt 0.906252 0.062500
vt 0.937500 0.062500
vt 0.937500 0.937500
vt 0.874982 0.874999
vt 0.625018 0.312499
vt 0.625018 0.375000
vt 0.562500 0.375000
vt 0.624998 0.374999
vt 0.874998 0.375000
vt 0.875002 0.500000
vt 0.625002 0.499999
vt 0.906232 0.500000
vt 0.874982 0.500000
vt 0.875018 0.375000
vt 0.906268 0.375000
vt 0.562500 0.937500
vt 0.562500 0.874999
vt 0.593748 0.874999
vt 0.624996 0.874999
vt 0.625004 0.375000
vt 0.624996 0.500000
vt 0.593746 0.500000
vt 0.593754 0.375000
vt 0.874998 0.500000
vt 0.906246 0.500000
vt 0.906254 0.375000
vt 0.875002 0.375000
vt 0.625018 0.500000
vt 0.562500 0.500000
vt 0.937500 0.500000
vt 0.875004 0.500000
vt 0.562500 0.625000
vt 0.593748 0.625000
vt 0.593732 0.500000
vt 0.624991 0.500000
vt 0.625009 0.375000
vt 0.593768 0.375000
vt 0.624991 0.375000
vt 0.874991 0.374999
vt 0.875009 0.499999
vt 0.625009 0.500000
vt 0.625001 0.500000
vt 0.625001 0.375000
vt 0.875000 0.375000
vt 0.875000 0.500000
vt 0.625000 0.374999
vt 0.593748 0.374999
vt 0.593755 0.499999
vt 0.625004 0.499999
vt 0.874982 0.562500
vt 0.937500 0.562500
vt 0.874982 0.625000
vt 0.874982 0.593750
vt 0.625018 0.000000
vt 0.625018 0.031250
vt 0.625018 0.062500
vt 0.562500 0.000000
vt 0.624996 0.562500
vt 0.624996 0.593750
vt 0.875004 0.000000
vt 0.937500 0.000000
vt 0.875004 0.062500
vt 0.875004 0.031250
vt 0.562500 0.562500
vt 0.624996 0.625000
vt 0.874999 0.500000
vt 0.625000 0.500000
vt 0.625000 0.375000
vt 0.874999 0.375000
vt 0.906241 0.499999
vt 0.874982 0.499999
vt 0.875018 0.374999
vt 0.906259 0.374999
vt 0.625018 0.374999
vt 0.593768 0.374999
vt 0.593732 0.499999
vt 0.624996 0.375000
vt 0.874982 0.375000
vt 0.874982 0.500000
vt 0.624996 0.500000
s 0
usemtl m_0
f 128/1/1 111/2/1 5/3/1 121/4/1 126/5/1 124/6/1
f 11/7/2 12/8/2 10/9/2 9/10/2
f 11/11/3 9/12/3 13/7/3 14/10/3
f 10/9/3 12/8/3 16/13/3 15/14/3
f 19/7/4 20/8/4 18/9/4 17/10/4
f 19/11/5 17/12/5 21/7/5 22/10/5
f 18/9/5 20/8/5 24/13/5 23/14/5
f 27/7/6 28/8/6 26/9/6 25/10/6
f 27/11/7 25/12/7 29/7/7 30/10/7
f 26/9/7 28/8/7 32/13/7 31/14/7
f 35/7/8 36/8/8 34/9/8 33/10/8
f 35/11/9 33/12/9 37/7/9 38/10/9
f 34/9/9 36/8/9 40/13/9 39/14/9
f 41/15/10 42/16/10 44/17/10 43/18/10
f 45/15/11 46/16/11 48/17/11 47/18/11
f 49/15/12 50/16/12 52/17/12 51/18/12
f 53/15/13 54/16/13 56/17/13 55/18/13
f 59/7/6 57/10/6 58/9/6 60/8/6
f 59/11/14 62/10/14 61/7/14 57/12/14
f 58/9/14 63/14/14 64/13/14 60/8/14
f 67/7/8 65/10/8 66/9/8 68/8/8
f 67/11/15 70/10/15 69/7/15 65/12/15
f 66/9/15 71/14/15 72/13/15 68/8/15
f 75/7/2 73/10/2 74/9/2 76/8/2
f 75/11/16 78/10/16 77/7/16 73/12/16
f 74/9/16 79/14/16 80/13/16 76/8/16
f 83/7/4 81/10/4 82/9/4 84/8/4
f 83/11/17 86/10/17 85/7/17 81/12/17
f 82/9/17 87/14/17 88/13/17 84/8/17
f 89/15/12 91/18/12 92/17/12 90/16/12
f 93/15/13 95/18/13 96/17/13 94/16/13
f 97/15/10 99/18/10 100/17/10 98/16/10
f 101/15/11 103/18/11 104/17/11 102/16/11
f 125/19/18 117/20/18 108/21/18 122/22/18
f 126/23/8 125/24/8 123/25/8 124/26/8
f 129/27/1 135/28/1 115/29/1 109/30/1
f 142/31/2 143/32/2 144/33/2 141/34/2
f 126/5/6 118/35/6 117/36/6 125/37/6
f 136/38/18 130/39/18 110/40/18 116/41/18
f 140/42/1 131/43/1 111/2/1 128/1/1
f 116/41/18 110/40/18 2/44/18 108/21/18 117/20/18 113/45/18
f 115/29/1 114/46/1 118/35/1 107/47/1 1/48/1 109/30/1
f 140/49/8 128/50/8 127/51/8 139/52/8
f 141/53/4 133/54/4 134/55/4 142/56/4
f 125/19/18 122/22/18 6/57/18 112/58/18 127/59/18 123/60/18
f 137/61/8 138/62/8 144/63/8 143/64/8
f 139/65/2 138/66/2 137/67/2 140/68/2
f 108/69/2 2/70/2 1/48/2 107/47/2 121/4/2 5/3/2 6/71/2 122/72/2
f 118/35/1 126/5/1 121/4/1 107/47/1
f 132/73/18 139/74/18 127/59/18 112/58/18
f 133/75/2 136/76/2 135/77/2 134/78/2
f 115/79/4 135/80/4 136/81/4 116/82/4
f 112/83/4 6/70/4 5/48/4 111/84/4 131/85/4 7/3/4 8/71/4 132/86/4
f 128/87/6 124/88/6 123/89/6 127/90/6
f 106/91/18 4/92/18 130/39/18 136/38/18 133/93/18 141/94/18
f 105/95/1 142/96/1 134/97/1 135/28/1 129/27/1 3/98/1
f 120/99/18 106/91/18 141/94/18 144/100/18
f 119/101/1 7/102/1 131/43/1 140/42/1 137/103/1 143/104/1
f 105/95/1 119/101/1 143/104/1 142/96/1
f 8/105/18 120/99/18 144/100/18 138/106/18 139/74/18 132/73/18
f 110/107/8 130/108/8 4/70/8 3/48/8 129/109/8 109/110/8 1/3/8 2/71/8
f 116/111/6 113/112/6 114/113/6 115/114/6
f 117/36/4 118/115/4 114/116/4 113/117/4
f 8/70/6 7/48/6 119/118/6 105/119/6 3/3/6 4/71/6 106/120/6 120/121/6
l 129 130
l 109 110
l 107 108
l 121 122
l 111 112
l 131 132
l 119 120
l 105 106
