# Blender 4.3.2
# www.blender.org
mtllib bbcage.mtl
o cube
v 0.125000 0.000000 0.875000
v 0.125000 0.250000 0.875000
v 0.125000 0.000000 0.125000
v 0.125000 0.250000 0.125000
v 0.875000 0.000000 0.875000
v 0.875000 0.250000 0.875000
v 0.875000 0.000000 0.125000
v 0.875000 0.250000 0.125000
v 0.062500 0.312500 0.937500
v 0.062500 0.875000 0.937500
v 0.937500 0.312500 0.937500
v 0.937500 0.875000 0.937500
v 0.062500 0.250000 0.875000
v 0.937500 0.250000 0.875000
v 0.062500 0.937500 1.000000
v 0.937500 0.937500 1.000000
v 0.937500 0.312500 0.937500
v 0.937500 0.875000 0.937500
v 0.937500 0.312500 0.062500
v 0.937500 0.875000 0.062500
v 0.875000 0.250000 0.937500
v 0.875000 0.250000 0.062500
v 1.000000 0.937500 0.937500
v 1.000000 0.937500 0.062500
v 0.937500 0.312500 0.062500
v 0.937500 0.875000 0.062500
v 0.062500 0.312500 0.062500
v 0.062500 0.875000 0.062500
v 0.937500 0.250000 0.125000
v 0.062500 0.250000 0.125000
v 0.937500 0.937500 -0.000000
v 0.062500 0.937500 -0.000000
v 0.062500 0.312500 0.062500
v 0.062500 0.875000 0.062500
v 0.062500 0.312500 0.937500
v 0.062500 0.875000 0.937500
v 0.125000 0.250000 0.062500
v 0.125000 0.250000 0.937500
v 0.000000 0.937500 0.062500
v 0.000000 0.937500 0.937500
v 0.875000 0.000000 0.875000
v 1.000000 0.000000 1.000000
v 0.875000 0.312500 0.875000
v 1.000000 0.312500 1.000000
v 0.875000 0.000000 0.125000
v 1.000000 0.000000 0.000000
v 0.875000 0.312500 0.125000
v 1.000000 0.312500 -0.000000
v 0.125000 0.000000 0.125000
v 0.000000 0.000000 0.000000
v 0.125000 0.312500 0.125000
v 0.000000 0.312500 -0.000000
v 0.125000 0.000000 0.875000
v 0.000000 0.000000 1.000000
v 0.125000 0.312500 0.875000
v 0.000000 0.312500 1.000000
v 0.062500 0.312500 0.937500
v 0.062500 0.875000 0.937500
v 0.937500 0.312500 0.937500
v 0.937500 0.875000 0.937500
v 0.062500 0.250000 0.875000
v 0.937500 0.250000 0.875000
v 0.062500 0.937500 1.000000
v 0.937500 0.937500 1.000000
v 0.937500 0.312500 0.937500
v 0.937500 0.875000 0.937500
v 0.937500 0.312500 0.062500
v 0.937500 0.875000 0.062500
v 0.875000 0.250000 0.937500
v 0.875000 0.250000 0.062500
v 1.000000 0.937500 0.937500
v 1.000000 0.937500 0.062500
v 0.937500 0.312500 0.062500
v 0.937500 0.875000 0.062500
v 0.062500 0.312500 0.062500
v 0.062500 0.875000 0.062500
v 0.937500 0.250000 0.125000
v 0.062500 0.250000 0.125000
v 0.937500 0.937500 -0.000000
v 0.062500 0.937500 -0.000000
v 0.062500 0.312500 0.062500
v 0.062500 0.875000 0.062500
v 0.062500 0.312500 0.937500
v 0.062500 0.875000 0.937500
v 0.125000 0.250000 0.062500
v 0.125000 0.250000 0.937500
v 0.000000 0.937500 0.062500
v 0.000000 0.937500 0.937500
v 0.875000 0.000000 0.875000
v 1.000000 0.000000 1.000000
v 0.875000 0.312500 0.875000
v 1.000000 0.312500 1.000000
v 0.875000 0.000000 0.125000
v 1.000000 0.000000 0.000000
v 0.875000 0.312500 0.125000
v 1.000000 0.312500 -0.000000
v 0.125000 0.000000 0.125000
v 0.000000 0.000000 0.000000
v 0.125000 0.312500 0.125000
v 0.000000 0.312500 -0.000000
v 0.125000 0.000000 0.875000
v 0.000000 0.000000 1.000000
v 0.125000 0.312500 0.875000
v 0.000000 0.312500 1.000000
v 0.250000 0.250000 0.250000
v 0.250000 0.000000 0.250000
v 0.250000 0.250000 0.187500
v 0.250000 -0.000000 0.187500
v 0.250000 0.000000 0.812500
v 0.250000 0.250000 0.812500
v 0.250000 0.000000 0.750000
v 0.250000 0.250000 0.750000
v 0.187500 0.250000 0.750000
v 0.187500 0.000000 0.750000
v 0.750000 0.000000 0.812500
v 0.750000 0.250000 0.812500
v 0.812500 0.250000 0.750000
v 0.812500 0.000000 0.750000
v 0.812500 0.250000 0.250000
v 0.812500 0.000000 0.250000
v 0.187500 0.250000 0.250000
v 0.187500 0.000000 0.250000
v 0.750000 0.250000 0.250000
v 0.750000 0.000000 0.250000
v 0.750000 0.250000 0.750000
v 0.750000 0.000000 0.750000
v 0.750000 0.250000 0.187500
v 0.750000 -0.000000 0.187500
v 0.875000 0.250000 0.250000
v 0.875000 0.250000 0.750000
v 0.750000 0.250000 0.875000
v 0.250000 0.250000 0.875000
v 0.125000 0.250000 0.750000
v 0.125000 0.250000 0.250000
v 0.250000 0.250000 0.125000
v 0.750000 0.250000 0.125000
v 0.125000 0.000000 0.250000
v 0.250000 0.000000 0.125000
v 0.750000 0.000000 0.125000
v 0.875000 0.000000 0.250000
v 0.750000 0.000000 0.875000
v 0.875000 0.000000 0.750000
v 0.250000 0.000000 0.875000
v 0.125000 0.000000 0.750000
vn -1.0000 -0.0000 -0.0000
vn -0.0000 -0.0000 -1.0000
vn 1.0000 -0.0000 -0.0000
vn -0.0000 -0.0000 1.0000
vn -0.0000 -1.0000 -0.0000
vn -0.0000 -0.7071 0.7071
vn 0.7071 -0.7071 -0.0000
vn -0.0000 0.7071 0.7071
vn 0.7071 0.7071 -0.0000
vn -0.7071 -0.0000 0.7071
vn 0.7071 -0.0000 0.7071
vn 0.7071 -0.0000 -0.7071
vn -0.0000 1.0000 -0.0000
vt 0.875000 0.500000
vt 0.625000 0.500000
vt 0.625000 0.375000
vt 0.875000 0.031250
vt 0.937500 0.000000
vt 0.906250 0.062500
vt 0.031250 0.531250
vt 0.468750 0.531250
vt 0.468750 0.812500
vt 0.031250 0.500000
vt 0.468750 0.500000
vt 0.031250 0.843750
vt 0.031250 0.812500
vt 1.000000 0.343750
vt 0.906250 0.500000
vt 0.906250 0.343750
vt 0.625666 0.500165
vt 0.874334 0.374835
vt 0.624334 0.375168
vt 0.625000 0.500000
vt 0.875000 0.375000
vt 0.906250 0.375000
vt 0.562500 0.312500
vt 0.593750 0.062500
vt 0.593750 0.312500
vt 0.906250 0.500000
vt 0.593750 0.375000
vt 0.625000 0.375000
vt 0.875000 0.500000
vt 0.625000 0.500000
vt 0.875000 0.375000
vt 0.625000 0.375000
vt 0.593750 0.500000
vt 0.906250 0.500000
vt 0.875000 0.375000
vt 0.906250 0.875000
vt 0.937500 0.937500
vt 0.875000 0.906250
vt 0.593750 0.625000
vt 0.562500 0.875000
vt 0.562500 0.625000
vt 0.593750 0.875000
vt 0.625000 0.906250
vt 0.562500 0.937500
vt 0.625000 0.937500
vt 0.875000 0.937500
vt 0.562500 0.562500
vt 0.625000 0.562500
vt 0.625000 0.593750
vt 0.937500 0.625000
vt 0.937500 0.875000
vt 0.906250 0.625000
vt 0.875000 0.593750
vt 0.937500 0.562500
vt 0.875000 0.562500
vt 0.625000 0.031250
vt 0.625000 0.062500
vt 0.906250 0.312500
vt 0.937500 0.375000
vt 0.875000 0.343750
vt 0.875000 0.000000
vt 0.937500 0.062500
vt 0.625000 0.343750
vt 0.562500 0.375000
vt 0.937500 0.500000
vt 0.562500 0.500000
vt 0.875000 0.375000
vt 0.875000 0.062500
vt 0.468750 0.843750
vt 1.000000 0.500000
vt 0.875666 0.499832
vt 0.875000 0.500000
vt 0.562500 0.062500
vt 0.906250 0.375000
vt 0.593750 0.500000
vt 0.906250 0.375000
vt 0.875000 0.500000
vt 0.906250 0.375000
vt 0.593750 0.500000
vt 0.875000 0.875000
vt 0.625000 0.875000
vt 0.625000 0.625000
vt 0.875000 0.625000
vt 0.562500 0.000000
vt 0.625000 0.000000
vt 0.937500 0.312500
vt 0.875000 0.312500
vt 0.625000 0.312500
s off
usemtl m_0
f 133/1/1 134/2/1 137/3/1
f 135/1/2 136/2/2 139/3/2
f 129/1/3 130/2/3 142/3/3
f 131/1/4 132/2/4 143/3/4
f 128/4/5 7/5/5 120/6/5
f 9/7/4 11/8/4 12/9/4
f 14/7/6 11/10/6 9/11/6
f 15/12/6 10/13/6 12/9/6
f 17/7/3 19/8/3 20/9/3
f 22/7/7 19/10/7 17/11/7
f 23/12/7 18/13/7 20/9/7
f 25/7/4 28/9/4 27/8/4
f 30/7/8 25/11/8 27/10/8
f 31/12/8 28/9/8 26/13/8
f 33/7/3 36/9/3 35/8/3
f 38/7/9 33/11/9 35/10/9
f 39/12/9 36/9/9 34/13/9
f 42/14/10 43/15/10 41/16/10
f 47/15/11 45/16/11 46/14/11
f 50/14/12 51/15/12 49/16/12
f 54/14/11 53/16/11 55/15/11
f 57/7/4 59/8/4 60/9/4
f 62/7/6 59/10/6 57/11/6
f 63/12/6 58/13/6 60/9/6
f 65/7/3 67/8/3 68/9/3
f 70/7/7 67/10/7 65/11/7
f 71/12/7 66/13/7 68/9/7
f 73/7/4 76/9/4 75/8/4
f 78/7/8 73/11/8 75/10/8
f 79/12/8 76/9/8 74/13/8
f 81/7/3 84/9/3 83/8/3
f 86/7/9 81/11/9 83/10/9
f 87/12/9 84/9/9 82/13/9
f 91/15/12 90/14/12 89/16/12
f 95/15/11 93/16/11 94/14/11
f 99/15/10 98/14/10 97/16/10
f 102/14/11 101/16/11 103/15/11
f 110/17/2 115/18/2 109/19/2
f 127/20/4 108/21/4 128/3/4
f 125/1/1 115/22/1 116/15/1
f 144/23/5 122/24/5 114/25/5
f 124/21/4 119/26/4 123/1/4
f 125/2/2 118/27/2 126/28/2
f 112/15/2 114/21/2 113/29/2
f 117/30/1 120/31/1 118/32/1
f 106/3/4 121/33/4 122/27/4
f 106/21/3 107/34/3 105/1/3
f 121/2/3 114/35/3 122/3/3
f 112/2/3 109/27/3 111/3/3
f 124/27/1 127/20/1 128/3/1
f 113/36/13 2/37/13 110/38/13
f 119/39/13 130/40/13 129/41/13
f 117/42/13 116/43/13 6/44/13
f 131/45/13 110/38/13 132/46/13
f 8/47/13 136/48/13 127/49/13
f 113/36/13 134/50/13 133/51/13
f 121/52/13 107/53/13 4/54/13
f 107/53/13 136/48/13 135/55/13
f 108/56/5 106/57/5 122/24/5
f 118/58/5 5/59/5 115/60/5
f 108/56/5 139/61/5 128/4/5
f 140/62/5 118/58/5 120/6/5
f 109/63/5 141/21/5 143/3/5
f 114/25/5 109/63/5 1/64/5
f 144/21/1 1/59/1 2/65/1
f 144/21/1 2/65/1 133/1/1
f 4/66/1 3/64/1 137/3/1
f 137/3/1 144/21/1 133/1/1
f 134/2/1 4/66/1 137/3/1
f 138/35/2 3/59/2 4/65/2
f 138/35/2 4/65/2 135/1/2
f 8/66/2 7/64/2 139/3/2
f 139/3/2 138/35/2 135/1/2
f 136/2/2 8/66/2 139/3/2
f 140/67/3 7/59/3 8/65/3
f 140/67/3 8/65/3 129/1/3
f 6/66/3 5/64/3 142/3/3
f 142/3/3 140/67/3 129/1/3
f 130/2/3 6/66/3 142/3/3
f 141/21/4 5/59/4 6/65/4
f 141/21/4 6/65/4 131/1/4
f 2/66/4 1/64/4 143/3/4
f 143/3/4 141/21/4 131/1/4
f 132/2/4 2/66/4 143/3/4
f 128/4/5 139/61/5 7/5/5
f 7/5/5 140/62/5 120/6/5
f 120/6/5 124/68/5 128/4/5
f 9/7/4 12/9/4 10/13/4
f 14/7/6 9/11/6 13/8/6
f 15/12/6 12/9/6 16/69/6
f 17/7/3 20/9/3 18/13/3
f 22/7/7 17/11/7 21/8/7
f 23/12/7 20/9/7 24/69/7
f 25/7/4 26/13/4 28/9/4
f 30/7/8 29/8/8 25/11/8
f 31/12/8 32/69/8 28/9/8
f 33/7/3 34/13/3 36/9/3
f 38/7/9 37/8/9 33/11/9
f 39/12/9 40/69/9 36/9/9
f 42/14/10 44/70/10 43/15/10
f 47/15/11 46/14/11 48/70/11
f 50/14/12 52/70/12 51/15/12
f 54/14/11 55/15/11 56/70/11
f 57/7/4 60/9/4 58/13/4
f 62/7/6 57/11/6 61/8/6
f 63/12/6 60/9/6 64/69/6
f 65/7/3 68/9/3 66/13/3
f 70/7/7 65/11/7 69/8/7
f 71/12/7 68/9/7 72/69/7
f 73/7/4 74/13/4 76/9/4
f 78/7/8 77/8/8 73/11/8
f 79/12/8 80/69/8 76/9/8
f 81/7/3 82/13/3 84/9/3
f 86/7/9 85/8/9 81/11/9
f 87/12/9 88/69/9 84/9/9
f 91/15/12 92/70/12 90/14/12
f 95/15/11 94/14/11 96/70/11
f 99/15/10 100/70/10 98/14/10
f 102/14/11 103/15/11 104/70/11
f 110/17/2 116/71/2 115/18/2
f 127/20/4 107/72/4 108/21/4
f 125/1/1 126/21/1 115/22/1
f 144/23/5 137/73/5 122/24/5
f 124/21/4 120/74/4 119/26/4
f 125/2/2 117/75/2 118/27/2
f 112/15/2 111/76/2 114/21/2
f 117/30/1 119/77/1 120/31/1
f 106/3/4 105/2/4 121/33/4
f 106/21/3 108/78/3 107/34/3
f 121/2/3 113/29/3 114/35/3
f 112/2/3 110/79/3 109/27/3
f 124/27/1 123/75/1 127/20/1
f 113/36/13 133/51/13 2/37/13
f 2/37/13 132/46/13 110/38/13
f 110/38/13 112/80/13 113/36/13
f 119/39/13 117/42/13 130/40/13
f 6/44/13 130/40/13 117/42/13
f 117/42/13 125/81/13 116/43/13
f 116/43/13 131/45/13 6/44/13
f 131/45/13 116/43/13 110/38/13
f 123/82/13 119/39/13 127/49/13
f 119/39/13 129/41/13 8/47/13
f 127/49/13 119/39/13 8/47/13
f 113/36/13 121/52/13 134/50/13
f 4/54/13 134/50/13 121/52/13
f 121/52/13 105/83/13 107/53/13
f 107/53/13 135/55/13 4/54/13
f 107/53/13 127/49/13 136/48/13
f 137/73/5 3/84/5 122/24/5
f 3/84/5 138/85/5 108/56/5
f 122/24/5 3/84/5 108/56/5
f 118/58/5 142/86/5 5/59/5
f 5/59/5 141/21/5 115/60/5
f 115/60/5 126/87/5 118/58/5
f 108/56/5 138/85/5 139/61/5
f 140/62/5 142/86/5 118/58/5
f 109/63/5 115/60/5 141/21/5
f 1/64/5 144/23/5 114/25/5
f 114/25/5 111/88/5 109/63/5
f 109/63/5 143/3/5 1/64/5
