# Blender 4.3.2
# www.blender.org
mtllib bbcage-5.mtl
o cube.001
v 0.187254 0.000000 0.812499
v 0.125000 0.250000 0.875000
v 0.125000 0.250000 0.125000
v 0.812504 0.250000 0.812499
v 0.875000 0.250000 0.875000
v 0.812504 0.000000 0.187500
v 0.875000 0.250000 0.125000
v 0.062500 0.312500 0.937500
v 0.062500 0.875000 0.937500
v 0.937500 0.312500 0.937500
v 0.937500 0.875000 0.937500
v 0.062500 0.250000 0.875000
v 0.937500 0.250000 0.875000
v 0.062500 0.937500 1.000000
v 0.937500 0.937500 1.000000
v 0.937500 0.312500 0.937500
v 0.937500 0.875000 0.937500
v 0.937500 0.312500 0.062500
v 0.937500 0.875000 0.062500
v 0.875000 0.250000 0.937500
v 0.875000 0.250000 0.062500
v 1.000000 0.937500 0.937500
v 1.000000 0.937500 0.062500
v 0.937500 0.312500 0.062500
v 0.937500 0.875000 0.062500
v 0.062500 0.312500 0.062500
v 0.062500 0.875000 0.062500
v 0.937500 0.250000 0.125000
v 0.062500 0.250000 0.125000
v 0.937500 0.937500 -0.000000
v 0.062500 0.937500 -0.000000
v 0.062500 0.312500 0.062500
v 0.062500 0.875000 0.062500
v 0.062500 0.312500 0.937500
v 0.062500 0.875000 0.937500
v 0.125000 0.250000 0.062500
v 0.125000 0.250000 0.937500
v 0.000000 0.937500 0.062500
v 0.000000 0.937500 0.937500
v 0.875000 0.000000 0.875000
v 1.000000 0.000000 1.000000
v 0.875000 0.312500 0.875000
v 1.000000 0.312500 1.000000
v 0.875000 0.000000 0.125000
v 1.000000 0.000000 0.000000
v 0.875000 0.312500 0.125000
v 1.000000 0.312500 -0.000000
v 0.125000 0.000000 0.125000
v 0.000000 0.000000 0.000000
v 0.125000 0.312500 0.125000
v 0.000000 0.312500 -0.000000
v 0.125000 0.000000 0.875000
v 0.000000 0.000000 1.000000
v 0.125000 0.312500 0.875000
v 0.000000 0.312500 1.000000
v 0.062500 0.312500 0.937500
v 0.062500 0.875000 0.937500
v 0.937500 0.312500 0.937500
v 0.937500 0.875000 0.937500
v 0.062500 0.250000 0.875000
v 0.937500 0.250000 0.875000
v 0.062500 0.937500 1.000000
v 0.937500 0.937500 1.000000
v 0.937500 0.312500 0.937500
v 0.937500 0.875000 0.937500
v 0.937500 0.312500 0.062500
v 0.937500 0.875000 0.062500
v 0.875000 0.250000 0.937500
v 0.875000 0.250000 0.062500
v 1.000000 0.937500 0.937500
v 1.000000 0.937500 0.062500
v 0.937500 0.312500 0.062500
v 0.937500 0.875000 0.062500
v 0.062500 0.312500 0.062500
v 0.062500 0.875000 0.062500
v 0.937500 0.250000 0.125000
v 0.062500 0.250000 0.125000
v 0.937500 0.937500 -0.000000
v 0.062500 0.937500 -0.000000
v 0.062500 0.312500 0.062500
v 0.062500 0.875000 0.062500
v 0.062500 0.312500 0.937500
v 0.062500 0.875000 0.937500
v 0.125000 0.250000 0.062500
v 0.125000 0.250000 0.937500
v 0.000000 0.937500 0.062500
v 0.000000 0.937500 0.937500
v 0.875000 0.000000 0.875000
v 1.000000 0.000000 1.000000
v 0.875000 0.312500 0.875000
v 1.000000 0.312500 1.000000
v 0.875000 0.000000 0.125000
v 1.000000 0.000000 0.000000
v 0.875000 0.312500 0.125000
v 1.000000 0.312500 -0.000000
v 0.125000 0.000000 0.125000
v 0.000000 0.000000 0.000000
v 0.125000 0.312500 0.125000
v 0.000000 0.312500 -0.000000
v 0.125000 0.000000 0.875000
v 0.000000 0.000000 1.000000
v 0.125000 0.312500 0.875000
v 0.000000 0.312500 1.000000
v 0.250037 0.000000 0.125000
v 0.250037 0.250000 0.125000
v 0.250037 0.000000 0.875000
v 0.250037 0.250000 0.875000
v 0.125000 0.000000 0.749997
v 0.125000 0.250000 0.749997
v 0.875000 0.000000 0.749997
v 0.875000 0.250000 0.749997
v 0.250037 0.250000 0.749997
v 0.250037 0.000000 0.749997
v 0.187518 0.000000 0.749997
v 0.187518 0.250000 0.749997
v 0.250037 0.250000 0.812499
v 0.250037 0.000000 0.812499
v 0.750007 0.000000 0.125000
v 0.750007 0.250000 0.125000
v 0.750007 0.000000 0.875000
v 0.750007 0.250000 0.875000
v 0.750007 0.250000 0.749997
v 0.750007 0.000000 0.749997
v 0.750007 0.250000 0.812499
v 0.750007 0.000000 0.812499
v 0.812504 0.250000 0.749997
v 0.812504 0.000000 0.749997
v 0.125000 0.000000 0.249999
v 0.125000 0.250000 0.249999
v 0.875000 0.000000 0.249999
v 0.875000 0.250000 0.249999
v 0.250037 0.250000 0.249999
v 0.250037 0.000000 0.249999
v 0.187518 0.000000 0.249999
v 0.187518 0.250000 0.249999
v 0.750007 0.000000 0.249999
v 0.750007 0.250000 0.249999
v 0.812504 0.250000 0.249999
v 0.812504 0.000000 0.249999
v 0.250037 0.250000 0.187500
v 0.250037 0.000000 0.187500
v 0.750007 0.000000 0.187500
v 0.750007 0.250000 0.187500
v 0.187518 0.250000 0.125000
v 0.187518 0.000000 0.125000
v 0.125000 0.250000 0.187500
v 0.125000 0.000000 0.187500
v 0.125000 0.250000 0.187500
v 0.187518 0.250000 0.187500
v 0.187518 0.000000 0.187500
v 0.186989 0.250000 0.875000
v 0.186989 0.000000 0.875000
v 0.125000 0.250000 0.812499
v 0.125000 0.000000 0.812499
v 0.187254 0.250000 0.812499
v 0.875000 0.250000 0.187500
v 0.875000 0.000000 0.187500
v 0.812504 0.250000 0.125000
v 0.812504 0.000000 0.125000
v 0.812504 0.250000 0.187500
v 0.875000 0.250000 0.812499
v 0.875000 0.000000 0.812499
v 0.812504 0.250000 0.875000
v 0.812504 0.000000 0.875000
v 0.812504 0.000000 0.812499
vn -0.0000 1.0000 -0.0000
vn -0.0000 -0.0000 1.0000
vn -0.0000 -0.7071 0.7071
vn 1.0000 -0.0000 -0.0000
vn 0.7071 -0.7071 -0.0000
vn -0.0000 -0.0000 -1.0000
vn -0.0000 -0.7071 -0.7071
vn -1.0000 -0.0000 -0.0000
vn -0.7071 -0.7071 -0.0000
vn -0.7071 -0.0000 0.7071
vn 0.7071 -0.0000 0.7071
vn 0.7071 -0.0000 -0.7071
vn -0.7071 -0.0000 -0.7071
vn -0.0000 0.7071 -0.7071
vn -0.7071 0.7071 -0.0000
vn -0.0000 0.7071 0.7071
vn 0.7071 0.7071 -0.0000
vn -0.0000 -1.0000 -0.0000
vt 0.624958 0.906250
vt 0.624958 0.937500
vt 0.593710 0.937500
vt 0.593710 0.906250
vt 0.468750 0.531250
vt 0.468750 0.812500
vt 0.031250 0.812500
vt 0.031250 0.531250
vt 0.031250 0.500000
vt 0.468750 0.500000
vt 0.468750 0.843750
vt 0.031250 0.843750
vt 0.906250 0.343750
vt 1.000000 0.343750
vt 1.000000 0.500000
vt 0.906250 0.500000
vt 0.624996 0.906249
vt 0.874982 0.906249
vt 0.874982 0.937500
vt 0.624996 0.937500
vt 0.906254 0.374999
vt 0.906246 0.499999
vt 0.874996 0.499999
vt 0.875004 0.374999
vt 0.562500 0.062500
vt 0.593759 0.062500
vt 0.593759 0.312499
vt 0.562500 0.312499
vt 0.625018 0.375000
vt 0.875004 0.375000
vt 0.874996 0.500000
vt 0.624982 0.500000
vt 0.875004 0.343749
vt 0.625018 0.343749
vt 0.624982 0.499999
vt 0.874996 0.499999
vt 0.906241 0.625000
vt 0.937500 0.625000
vt 0.937500 0.874999
vt 0.906241 0.874999
vt 0.906252 0.062500
vt 0.937500 0.062500
vt 0.937500 0.312499
vt 0.906252 0.312499
vt 0.906113 0.875015
vt 0.937357 0.875015
vt 0.937357 0.906250
vt 0.906246 0.906250
vt 0.593481 0.343750
vt 0.593349 0.374985
vt 0.562370 0.374985
vt 0.562370 0.343750
vt 0.624998 0.374999
vt 0.874998 0.375000
vt 0.875002 0.500000
vt 0.625002 0.499999
vt 0.906232 0.500000
vt 0.874982 0.500000
vt 0.875018 0.375000
vt 0.906268 0.375000
vt 0.625004 0.375000
vt 0.624996 0.500000
vt 0.593746 0.500000
vt 0.593754 0.375000
vt 0.874998 0.500000
vt 0.906246 0.500000
vt 0.906254 0.375000
vt 0.875002 0.375000
vt 0.875004 0.375000
vt 0.625018 0.375000
vt 0.562500 0.625000
vt 0.593748 0.625000
vt 0.593748 0.874999
vt 0.562500 0.874999
vt 0.593732 0.500000
vt 0.624991 0.500000
vt 0.625009 0.375000
vt 0.593768 0.375000
vt 0.624991 0.375000
vt 0.874991 0.374999
vt 0.875009 0.499999
vt 0.625009 0.500000
vt 0.625000 0.374999
vt 0.593748 0.374999
vt 0.593755 0.499999
vt 0.625004 0.499999
vt 0.906321 0.499929
vt 0.937609 0.499929
vt 0.937609 0.375071
vt 0.906107 0.375016
vt 0.624996 0.562500
vt 0.874982 0.562500
vt 0.874982 0.593750
vt 0.624996 0.593750
vt 0.906223 0.031250
vt 0.906223 0.000000
vt 0.937471 0.000000
vt 0.937471 0.031250
vt 0.625018 0.000000
vt 0.875004 0.000000
vt 0.875004 0.031250
vt 0.625018 0.031250
vt 0.562500 0.625000
vt 0.562500 0.593750
vt 0.593520 0.593750
vt 0.593520 0.625000
vt 0.906241 0.499999
vt 0.874982 0.499999
vt 0.875018 0.374999
vt 0.906259 0.374999
vt 0.625018 0.374999
vt 0.593768 0.374999
vt 0.593732 0.499999
vt 0.625107 0.375034
vt 0.874965 0.375034
vt 0.874965 0.499965
vt 0.625107 0.499966
vt 0.906290 0.499929
vt 0.906290 0.375071
vt 0.937510 0.375071
vt 0.937510 0.499929
vt 0.593594 0.499929
vt 0.593594 0.375071
vt 0.625147 0.375071
vt 0.625147 0.499929
vt 0.874979 0.375021
vt 0.874979 0.499979
vt 0.625121 0.499979
vt 0.625121 0.375021
vt 0.593771 0.499929
vt 0.593771 0.375071
vt 0.624971 0.375071
vt 0.624971 0.499929
vt 0.593791 0.499929
vt 0.562571 0.499929
vt 0.562571 0.375071
vt 0.593791 0.375071
vt 0.874966 0.375034
vt 0.874966 0.499966
vt 0.625107 0.499966
vt 0.625107 0.375034
vt 0.906284 0.499929
vt 0.906284 0.375071
vt 0.937498 0.375071
vt 0.937498 0.499929
vt 0.593771 0.499929
vt 0.562571 0.499929
vt 0.562571 0.375071
vt 0.593771 0.375071
vt 0.625121 0.375021
vt 0.874979 0.375021
vt 0.874979 0.499979
vt 0.625121 0.499979
vt 0.593784 0.499929
vt 0.593784 0.375071
vt 0.624998 0.375071
vt 0.624998 0.499929
vt 0.875071 0.499929
vt 0.875071 0.375071
vt 0.906359 0.375071
vt 0.906359 0.499929
vt 0.562571 0.499929
vt 0.562571 0.375071
vt 0.906241 0.593750
vt 0.937500 0.593750
vt 0.937456 0.593746
vt 0.906220 0.593746
vt 0.906220 0.562500
vt 0.937456 0.562500
vt 0.874982 0.625000
vt 0.562357 0.000016
vt 0.593601 0.000016
vt 0.593601 0.031250
vt 0.562357 0.031250
vt 0.593601 0.062484
vt 0.562357 0.062484
vt 0.624845 0.031250
vt 0.624845 0.062484
vt 0.624845 0.000016
vt 0.562571 0.499929
vt 0.562571 0.375071
vt 0.875071 0.499929
vt 0.875071 0.375071
vt 0.906206 0.562504
vt 0.906206 0.593750
vt 0.874970 0.593750
vt 0.874970 0.562504
vt 0.874870 0.906250
vt 0.874870 0.875015
vt 0.906378 0.937485
vt 0.937357 0.937485
vt 0.874870 0.937485
vt 0.624857 0.374985
vt 0.624857 0.343750
vt 0.593613 0.312515
vt 0.562370 0.312515
vt 0.624857 0.312515
vt 0.875071 0.499929
vt 0.875071 0.375071
vt 0.624971 0.499929
vt 0.624971 0.375071
vt 0.562500 0.562500
vt 0.593520 0.562500
vt 0.625000 0.593750
vt 0.625000 0.562500
vt 0.625000 0.625000
vt 0.937471 0.031250
vt 0.937471 0.062500
vt 0.906223 0.062500
vt 0.874974 0.062500
vt 0.874974 0.031250
vt 0.874974 0.031250
vt 0.874974 0.000000
vt 0.625010 0.499929
vt 0.625010 0.375071
vt 0.562571 0.499929
vt 0.562571 0.375071
vt 0.593710 0.875000
vt 0.624958 0.875000
vt 0.562463 0.906250
vt 0.562463 0.937500
vt 0.562463 0.875000
vt 0.874963 0.375000
vt 0.874963 0.343750
vt 0.906211 0.343750
vt 0.906211 0.375000
vt 0.937458 0.375000
vt 0.937458 0.343750
vt 0.906211 0.312500
vt 0.937458 0.312500
vt 0.874963 0.312500
s 0
usemtl m_0
f 124/1/1 121/2/1 163/3/1 4/4/1
f 10/5/2 11/6/2 9/7/2 8/8/2
f 10/9/3 8/10/3 12/5/3 13/8/3
f 9/7/3 11/6/3 15/11/3 14/12/3
f 18/5/4 19/6/4 17/7/4 16/8/4
f 18/9/5 16/10/5 20/5/5 21/8/5
f 17/7/5 19/6/5 23/11/5 22/12/5
f 26/5/6 27/6/6 25/7/6 24/8/6
f 26/9/7 24/10/7 28/5/7 29/8/7
f 25/7/7 27/6/7 31/11/7 30/12/7
f 34/5/8 35/6/8 33/7/8 32/8/8
f 34/9/9 32/10/9 36/5/9 37/8/9
f 33/7/9 35/6/9 39/11/9 38/12/9
f 40/13/10 41/14/10 43/15/10 42/16/10
f 44/13/11 45/14/11 47/15/11 46/16/11
f 48/13/12 49/14/12 51/15/12 50/16/12
f 52/13/13 53/14/13 55/15/13 54/16/13
f 58/5/6 56/8/6 57/7/6 59/6/6
f 58/9/14 61/8/14 60/5/14 56/10/14
f 57/7/14 62/12/14 63/11/14 59/6/14
f 66/5/8 64/8/8 65/7/8 67/6/8
f 66/9/15 69/8/15 68/5/15 64/10/15
f 65/7/15 70/12/15 71/11/15 67/6/15
f 74/5/2 72/8/2 73/7/2 75/6/2
f 74/9/16 77/8/16 76/5/16 72/10/16
f 73/7/16 78/12/16 79/11/16 75/6/16
f 82/5/4 80/8/4 81/7/4 83/6/4
f 82/9/17 85/8/17 84/5/17 80/10/17
f 81/7/17 86/12/17 87/11/17 83/6/17
f 88/13/12 90/16/12 91/15/12 89/14/12
f 92/13/13 94/16/13 95/15/13 93/14/13
f 96/13/10 98/16/10 99/15/10 97/14/10
f 100/13/11 102/16/11 103/15/11 101/14/11
f 124/17/1 116/18/1 107/19/1 121/20/1
f 125/21/8 124/22/8 122/23/8 123/24/8
f 128/25/18 134/26/18 114/27/18 108/28/18
f 141/29/2 142/30/2 143/31/2 140/32/2
f 125/33/6 117/34/6 116/35/6 124/36/6
f 135/37/1 129/38/1 109/39/1 115/40/1
f 139/41/18 130/42/18 110/43/18 127/44/18
f 115/45/1 109/46/1 153/47/1 155/48/1
f 1/49/18 152/50/18 100/51/18 154/52/18
f 139/53/8 127/54/8 126/55/8 138/56/8
f 140/57/4 132/58/4 133/59/4 141/60/4
f 136/61/8 137/62/8 143/63/8 142/64/8
f 138/65/2 137/66/2 136/67/2 139/68/2
f 117/34/18 125/33/18 120/69/18 106/70/18
f 131/71/1 138/72/1 126/73/1 111/74/1
f 132/75/2 135/76/2 134/77/2 133/78/2
f 114/79/4 134/80/4 135/81/4 115/82/4
f 127/83/6 123/84/6 122/85/6 126/86/6
f 3/87/6 144/88/6 145/89/6 96/90/6
f 119/91/1 105/92/1 140/93/1 143/94/1
f 6/95/18 159/96/18 92/97/18 157/98/18
f 104/99/18 118/100/18 142/101/18 141/102/18
f 131/103/1 156/104/1 160/105/1 138/106/1
f 115/107/6 112/108/6 113/109/6 114/110/6
f 116/35/4 117/111/4 113/112/4 112/113/4
f 128/114/8 108/115/8 109/116/8 129/117/8
f 153/118/8 154/119/8 100/120/8 2/121/8
f 151/122/2 152/123/2 106/124/2 107/125/2
f 120/126/2 121/127/2 107/128/2 106/129/2
f 163/130/2 164/131/2 88/132/2 5/133/2
f 161/134/4 5/135/4 88/136/4 162/137/4
f 130/138/4 131/139/4 111/140/4 110/141/4
f 156/142/4 157/143/4 92/144/4 7/145/4
f 158/146/6 7/147/6 92/148/6 159/149/6
f 118/150/6 104/151/6 105/152/6 119/153/6
f 146/154/8 147/155/8 128/156/8 129/157/8 148/154/8
f 105/158/6 104/159/6 145/160/6 144/161/6
f 3/162/8 96/163/8 147/155/8 146/154/8
f 135/37/1 149/164/1 148/165/1 129/38/1
f 140/166/1 105/167/1 144/168/1 149/169/1
f 140/93/1 149/164/1 135/37/1 132/170/1
f 96/171/18 145/172/18 150/173/18 147/174/18
f 134/175/18 128/176/18 147/174/18 150/173/18
f 141/177/18 133/178/18 134/175/18 150/173/18
f 104/179/18 141/177/18 150/173/18 145/172/18
f 2/180/2 100/181/2 152/123/2 151/122/2
f 109/182/8 108/183/8 154/119/8 153/118/8
f 148/184/1 149/185/1 144/186/1 3/187/1
f 115/45/1 155/48/1 116/188/1 112/189/1
f 151/190/1 155/48/1 153/47/1 2/191/1
f 107/192/1 116/188/1 155/48/1 151/190/1
f 106/193/18 152/50/18 1/49/18 117/194/18
f 114/195/18 1/49/18 154/52/18 108/196/18
f 1/49/18 114/195/18 113/197/18 117/194/18
f 131/198/4 130/199/4 157/143/4 156/142/4
f 119/200/6 158/146/6 159/149/6 118/201/6
f 156/104/1 7/202/1 158/203/1 160/105/1
f 143/204/1 160/105/1 158/203/1 119/205/1
f 143/204/1 137/206/1 138/106/1 160/105/1
f 6/95/18 142/207/18 118/208/18 159/209/18
f 139/209/18 136/210/18 142/211/18 6/95/18
f 139/96/18 6/95/18 157/212/18 130/213/18
f 111/214/4 161/134/4 162/137/4 110/215/4
f 121/216/2 120/217/2 164/131/2 163/130/2
f 124/1/1 4/4/1 126/218/1 122/219/1
f 161/220/1 4/4/1 163/3/1 5/221/1
f 111/222/1 126/218/1 4/4/1 161/220/1
f 120/223/18 125/224/18 165/225/18 164/226/18
f 88/227/18 164/226/18 165/225/18 162/228/18
f 127/229/18 110/230/18 162/228/18 165/225/18
f 165/225/18 125/224/18 123/231/18 127/229/18
