# Blender 4.3.2
# www.blender.org
mtllib burner_flame-1.mtl
o cube
v 0.250128 1.000001 0.750000
v 0.749872 1.000001 0.750000
v 0.187500 0.937501 0.812500
v 0.812500 0.937501 0.812500
v 0.187500 0.375000 0.812500
v 0.812500 0.375000 0.812500
v 0.312500 0.250000 0.687500
v 0.687500 0.250000 0.687500
v 0.749998 1.000001 0.749165
v 0.749998 1.000002 0.250835
v 0.812498 0.937502 0.812500
v 0.812498 0.937502 0.187500
v 0.812500 0.375000 0.812500
v 0.812500 0.375000 0.187500
v 0.687500 0.250000 0.687500
v 0.687500 0.250000 0.312500
v 0.750579 0.999998 0.250001
v 0.249654 0.999998 0.250001
v 0.812500 0.937498 0.187501
v 0.187500 0.937498 0.187501
v 0.812500 0.375000 0.187500
v 0.187500 0.375000 0.187500
v 0.687500 0.250000 0.312500
v 0.312500 0.250000 0.312500
v 0.250003 1.000000 0.250128
v 0.250003 1.000000 0.748458
v 0.187503 0.937500 0.187500
v 0.187503 0.937500 0.812500
v 0.187500 0.375000 0.187500
v 0.187500 0.375000 0.812500
v 0.312500 0.250000 0.312500
v 0.312500 0.250000 0.687500
v 0.250128 1.000001 0.750000
v 0.749872 1.000001 0.750000
v 0.187500 0.937501 0.812500
v 0.812500 0.937501 0.812500
v 0.187500 0.375000 0.812500
v 0.812500 0.375000 0.812500
v 0.312500 0.250000 0.687500
v 0.687500 0.250000 0.687500
v 0.749998 1.000001 0.749165
v 0.749998 1.000002 0.250835
v 0.812498 0.937502 0.812500
v 0.812498 0.937502 0.187500
v 0.812500 0.375000 0.812500
v 0.812500 0.375000 0.187500
v 0.687500 0.250000 0.687500
v 0.687500 0.250000 0.312500
v 0.750579 0.999998 0.250001
v 0.249654 0.999998 0.250001
v 0.812500 0.937498 0.187501
v 0.187500 0.937498 0.187501
v 0.812500 0.375000 0.187500
v 0.187500 0.375000 0.187500
v 0.687500 0.250000 0.312500
v 0.312500 0.250000 0.312500
v 0.250003 1.000000 0.250128
v 0.250003 1.000000 0.748458
v 0.187503 0.937500 0.187500
v 0.187503 0.937500 0.812500
v 0.187500 0.375000 0.187500
v 0.187500 0.375000 0.812500
v 0.312500 0.250000 0.312500
v 0.312500 0.250000 0.687500
vn -0.0000 -0.7071 -0.7071
vn -0.0000 -0.0000 -1.0000
vn -0.0000 0.7071 -0.7071
vn -0.7071 -0.7071 -0.0000
vn -1.0000 -0.0000 -0.0000
vn -0.7071 0.7071 -0.0000
vn -0.0000 -0.7071 0.7071
vn -0.0000 -0.0000 1.0000
vn -0.0000 0.7071 0.7071
vn 0.7071 -0.7071 -0.0000
vn 1.0000 -0.0000 -0.0000
vn 0.7071 0.7071 -0.0000
vt 0.937500 1.000000
vt 0.062500 1.000000
vt 0.125000 0.937500
vt 0.875000 0.937500
vt 0.125000 0.250000
vt 0.875000 0.250000
vt 0.250000 -0.000000
vt 0.750000 -0.000000
s off
usemtl m_0
f 1/1/1 2/2/1 4/3/1 3/4/1
f 3/4/2 4/3/2 6/5/2 5/6/2
f 5/6/3 6/5/3 8/7/3 7/8/3
f 9/1/4 10/2/4 12/3/4 11/4/4
f 11/4/5 12/3/5 14/5/5 13/6/5
f 13/6/6 14/5/6 16/7/6 15/8/6
f 17/1/7 18/2/7 20/3/7 19/4/7
f 19/4/8 20/3/8 22/5/8 21/6/8
f 21/6/9 22/5/9 24/7/9 23/8/9
f 25/1/10 26/2/10 28/3/10 27/4/10
f 27/4/11 28/3/11 30/5/11 29/6/11
f 29/6/12 30/5/12 32/7/12 31/8/12
f 33/1/9 35/4/9 36/3/9 34/2/9
f 35/4/8 37/6/8 38/5/8 36/3/8
f 37/6/7 39/8/7 40/7/7 38/5/7
f 41/1/12 43/4/12 44/3/12 42/2/12
f 43/4/11 45/6/11 46/5/11 44/3/11
f 45/6/10 47/8/10 48/7/10 46/5/10
f 49/1/3 51/4/3 52/3/3 50/2/3
f 51/4/2 53/6/2 54/5/2 52/3/2
f 53/6/1 55/8/1 56/7/1 54/5/1
f 57/1/6 59/4/6 60/3/6 58/2/6
f 59/4/5 61/6/5 62/5/5 60/3/5
f 61/6/4 63/8/4 64/7/4 62/5/4
